<svg width="30" height="32" viewBox="0 0 30 32" fill="none" xmlns="http://www.w3.org/2000/svg">
<path d="M7.5 3.06897C7.54067 1.37164 8.21275 1.0429 10 1H27C28.5 0.999988 29 3.06897 29 3.06897V21.6897C29 23.7586 27 24.2759 27 24.2759H22V28.931C22 29.4483 21.5 31 20 31H3C1.5 31 1 30.4828 1 28.931L1.00002 26.4904C1.00006 21.7478 1.00015 11.9531 1 10.3103C0.999806 8.24138 1.50019 8.24138 3 8.24138H7.5V3.06897Z" fill="#007BFF"/>
<path d="M7.5 8.24138C7.5 8.24138 7.5 19.6207 7.5 21.6897C7.5 23.7586 8 24.2759 10 24.2759C12 24.2759 22 24.2759 22 24.2759M7.5 8.24138V3.06897C7.54067 1.37164 8.21275 1.0429 10 1C10 1 25.5 1.00001 27 1C28.5 0.999988 29 3.06897 29 3.06897C29 3.06897 29 19.6207 29 21.6897C29 23.7586 27 24.2759 27 24.2759H22M7.5 8.24138C7.5 8.24138 4.49981 8.24138 3 8.24138C1.50019 8.24138 0.999806 8.24138 1 10.3103C1.00019 12.3793 1 27.3793 1 28.931C1 30.4828 1.5 31 3 31C4.5 31 18.5 31 20 31C21.5 31 22 29.4483 22 28.931C22 28.4138 22 24.2759 22 24.2759" stroke="white"/>
</svg>
